<?xml version="1.0" encoding="iso-8859-1"?>
<svg xmlns="http://www.w3.org/2000/svg" x="0" y="0" width="1738.783" height="231.769" viewBox="0 0 1738.783 231.769">
    <path d="M1546.957,228.859v-92.587h2.91v89.81h31.082v2.777H1546.957z M1598.672,207.035l-5.422,21.824h-2.646l22.354-92.719h4.102
        l22.881,92.719h-2.91l-5.422-21.824H1598.672z M1599.201,204.39h31.877l-16.137-64.811L1599.201,204.39z M1668.641,136.272
        c6.699,0,11.352,1.653,13.953,4.96s3.902,8.048,3.902,14.219v5.952c0,5.204-0.904,9.325-2.711,12.367
        c-1.809,3.042-5.314,4.96-10.516,5.754c5.467,0.793,9.346,2.955,11.641,6.48c2.291,3.528,3.438,7.981,3.438,13.359v8.2
        c0,6.526-1.52,11.706-4.562,15.541c-3.043,3.836-8.047,5.754-15.012,5.754h-18.65v-92.587H1668.641z M1665.068,178.334
        c3.176,0,5.93-0.22,8.268-0.662c2.336-0.439,4.275-1.277,5.82-2.513c1.541-1.233,2.666-2.931,3.373-5.093
        c0.703-2.159,1.057-4.914,1.057-8.267v-6.216c0-5.467-1.037-9.59-3.107-12.367c-2.072-2.777-6.018-4.166-11.838-4.166h-15.607
        v39.283H1665.068z M1668.773,226.082c6.084,0,10.383-1.631,12.895-4.895c2.514-3.261,3.77-7.804,3.77-13.623v-8.333
        c0-6.7-1.586-11.418-4.76-14.152c-3.176-2.732-7.938-4.101-14.285-4.101h-13.359v45.104H1668.773z M1717.842,135.611
        c3.525,0,6.502,0.596,8.928,1.786c2.424,1.19,4.387,2.844,5.887,4.96c1.498,2.116,2.6,4.562,3.307,7.341
        c0.705,2.777,1.059,5.753,1.059,8.928v1.72h-2.91v-1.853c0-2.731-0.287-5.334-0.861-7.804c-0.574-2.467-1.477-4.629-2.711-6.48
        c-1.236-1.852-2.889-3.307-4.959-4.365c-2.074-1.058-4.609-1.587-7.605-1.587c-3.088,0-5.668,0.529-7.738,1.587
        c-2.072,1.059-3.727,2.514-4.959,4.365c-1.236,1.852-2.141,3.99-2.713,6.415c-0.574,2.426-0.859,5.005-0.859,7.737
        c0,3.968,0.881,7.32,2.646,10.052c1.762,2.734,3.945,5.182,6.547,7.341c2.6,2.162,5.443,4.189,8.531,6.085
        c3.084,1.896,5.928,3.968,8.531,6.216c2.6,2.249,4.781,4.851,6.547,7.804c1.762,2.956,2.645,6.504,2.645,10.647
        c0,3.175-0.354,6.174-1.059,8.994c-0.705,2.823-1.83,5.271-3.371,7.341c-1.545,2.073-3.551,3.704-6.02,4.895
        s-5.469,1.785-8.994,1.785c-3.527,0-6.504-0.595-8.928-1.785c-2.426-1.19-4.41-2.821-5.951-4.895
        c-1.545-2.07-2.668-4.518-3.373-7.341c-0.707-2.82-1.059-5.819-1.059-8.994v-4.497h2.777v4.63c0,2.823,0.285,5.445,0.859,7.87
        c0.574,2.426,1.521,4.542,2.844,6.349c1.324,1.809,3.02,3.24,5.094,4.299c2.07,1.058,4.648,1.587,7.736,1.587
        c2.998,0,5.557-0.529,7.672-1.587c2.117-1.059,3.836-2.49,5.158-4.299c1.322-1.807,2.27-3.923,2.844-6.349
        c0.572-2.425,0.859-5.047,0.859-7.87c0-3.879-0.881-7.186-2.645-9.92c-1.766-2.732-3.947-5.18-6.547-7.341
        c-2.602-2.16-5.445-4.167-8.531-6.019c-3.088-1.852-5.932-3.922-8.531-6.216c-2.602-2.292-4.785-4.915-6.547-7.87
        c-1.766-2.953-2.646-6.548-2.646-10.78c0-6.789,1.498-12.277,4.498-16.467C1706.289,137.839,1711.141,135.7,1717.842,135.611z
        M107.25,22.453H77.5v186.572h29.75V22.453z M64.583,53.787H37.667v123.905h26.916V53.787z M23.916,78.121H0v75.237h23.916V78.121z
        M678.13,2.586h33.618v172.291c0,18.319-4.475,32.381-13.415,42.184c-8.945,9.809-22.142,14.708-39.598,14.708
        c-17.455,0-30.658-4.899-39.598-14.708c-8.945-9.803-13.415-23.864-13.415-42.184V2.586h35.558V177.14
        c0,8.192,1.667,13.899,5.01,17.132c3.338,3.232,7.808,4.85,13.415,4.85c5.602,0,10.071-1.617,13.415-4.85
        c3.338-3.232,5.01-8.939,5.01-17.132V2.586z M460.912,14.708c9.263,9.809,13.9,23.87,13.9,42.184v117.662
        c0,18.319-4.637,32.381-13.9,42.184c-9.268,9.809-22.627,14.708-40.083,14.708c-17.455,0-30.819-4.899-40.083-14.708
        c-9.268-9.803-13.9-23.864-13.9-42.184V56.892c0-18.314,4.632-32.375,13.9-42.184C390.01,4.904,403.375,0,420.83,0
        C438.285,0,451.644,4.904,460.912,14.708z M439.255,54.629c0-8.187-1.672-13.95-5.01-17.293c-3.344-3.339-7.813-5.011-13.415-5.011
        c-5.606,0-10.076,1.672-13.415,5.011c-3.344,3.343-5.01,9.106-5.01,17.293v122.188c0,8.192,1.667,13.955,5.01,17.294
        c3.338,3.344,7.808,5.011,13.415,5.011c5.602,0,10.071-1.667,13.415-5.011c3.338-3.339,5.01-9.102,5.01-17.294V54.629z
        M293.793,187.16L266.64,2.586h-35.88l34.911,226.273h53.013L353.594,2.586h-32.648L293.793,187.16z M725.646,34.911h37.173
        v193.948h35.558V34.911h37.173V2.586H725.646V34.911z M533.319,2.586h-35.558v226.273h94.065v-32.325h-58.508V2.586z
        M851.062,228.859h35.557V2.586h-35.557V228.859z M121.18,228.859h96.975v-32.325h-61.417v-66.266h48.81V97.944h-48.81V34.911
        h61.417V2.586H121.18V228.859z M1003.631,14.708c9.264,9.809,13.9,23.87,13.9,42.184v117.662c0,18.319-4.637,32.381-13.9,42.184
        c-9.268,9.809-22.627,14.708-40.082,14.708s-30.82-4.899-40.082-14.708c-9.27-9.803-13.9-23.864-13.9-42.184V56.892
        c0-18.314,4.631-32.375,13.9-42.184C932.729,4.904,946.094,0,963.549,0S994.363,4.904,1003.631,14.708z M981.973,54.629
        c0-8.187-1.672-13.95-5.01-17.293c-3.344-3.339-7.812-5.011-13.414-5.011c-5.607,0-10.076,1.672-13.414,5.011
        c-3.344,3.343-5.012,9.106-5.012,17.293v122.188c0,8.192,1.668,13.955,5.012,17.294c3.338,3.344,7.807,5.011,13.414,5.011
        c5.602,0,10.07-1.667,13.414-5.011c3.338-3.339,5.01-9.102,5.01-17.294V54.629z M1417.381,216.091
        c0.43,4.202,1.506,8.46,3.232,12.769h-36.203c-0.434-1.505-0.863-2.909-1.293-4.202c-0.434-1.293-0.809-2.909-1.131-4.849
        c-0.324-1.939-0.541-4.414-0.646-7.435c-0.111-3.016-0.162-6.788-0.162-11.313v-35.558c0-10.556-1.834-17.991-5.496-22.304
        c-3.666-4.309-9.59-6.466-17.777-6.466h-12.283v92.126h-35.559V2.586h53.66c18.531,0,31.945,4.313,40.244,12.93
        c8.293,8.622,12.445,21.658,12.445,39.113v17.779c0,23.274-7.758,38.578-23.273,45.901c9.051,3.667,15.242,9.647,18.586,17.94
        c3.338,8.298,5.01,18.375,5.01,30.224v34.911C1416.734,206.989,1416.947,211.889,1417.381,216.091z M1380.854,58.185
        c0-8.187-1.453-14.112-4.363-17.778c-2.908-3.662-7.49-5.495-13.738-5.495h-17.131v69.498h13.898
        c6.678,0,11.904-1.722,15.678-5.172c3.768-3.445,5.656-9.698,5.656-18.749V58.185z M1257.375,2.586l36.203,226.273h-35.879
        l-6.143-41.053h-43.639l-6.141,41.053h-32.648l36.203-226.273H1257.375z M1246.707,157.099l-17.131-114.43l-17.133,114.43H1246.707
        z M1121.293,138.026l-36.527-135.44h-44.609v226.273h32.002V64.973l44.285,163.886h36.527V2.586h-31.678V138.026z
        M1738.783,106.981c0,3.281-2.67,5.95-5.951,5.95c-2.762,0-5.082-1.895-5.75-4.45h-67.512v-0.012l-21.184-21.184h-112.984
        l-19.775,66.581v74.993h-35.557v-74.993l-44.932-151.28h37.174l27.152,103.116l27.152-103.116h33.941l-17.83,60.033h36.312
        l33.664-33.666l0.014,0.013v-0.013h98.154c0.607-2.641,2.971-4.617,5.793-4.617c3.281,0,5.951,2.669,5.951,5.951
        c0,3.281-2.67,5.95-5.951,5.95c-2.701,0-4.984-1.812-5.707-4.283h-63.521l-30.664,30.666h66.471c0.668-2.556,2.988-4.45,5.75-4.45
        c3.281,0,5.951,2.669,5.951,5.951c0,3.281-2.67,5.95-5.951,5.95c-2.762,0-5.084-1.895-5.75-4.45h-141.408l-5.543,18.666h113.352
        v0.016l21.18,21.179h66.258c0.668-2.556,2.99-4.45,5.75-4.45C1736.113,101.03,1738.783,103.7,1738.783,106.981z M1675.846,64.12
        c0,1.737,1.412,3.15,3.148,3.15s3.15-1.413,3.15-3.15c0-1.737-1.414-3.151-3.15-3.151S1675.846,62.382,1675.846,64.12z
        M1703.518,30.287c0,1.737,1.412,3.15,3.148,3.15s3.15-1.413,3.15-3.15c0-1.737-1.414-3.151-3.15-3.151
        S1703.518,28.549,1703.518,30.287z M1573.283,62.619h29.248l30.664-30.666h-29.248L1573.283,62.619z M1735.982,106.981
        c0-1.737-1.412-3.151-3.15-3.151c-1.736,0-3.148,1.414-3.148,3.151c0,1.737,1.412,3.15,3.148,3.15
        C1734.57,110.131,1735.982,108.718,1735.982,106.981z"/>
</svg>